<?xml version="1.0" encoding="utf-8"?>
<!-- Generator: Adobe Illustrator 23.0.0, SVG Export Plug-In . SVG Version: 6.00 Build 0)  -->
<svg version="1.1" id="Layer_1" xmlns="http://www.w3.org/2000/svg" xmlns:xlink="http://www.w3.org/1999/xlink" x="0px" y="0px"
	 viewBox="0 0 1200 1200" style="enable-background:new 0 0 1200 1200;" xml:space="preserve">
<style type="text/css">
	.st0{fill:#333333;}
	.st1{fill:#FF6600;}
</style>
<g>
	<path class="st0" d="M-1383.22-874.79l-0.05,804.21h22.01l0.05-456.28v-22.01l0.05-303.92h550.28v991.56h-550.37V88.46h-22.01
		v72.32h594.38V-874.79H-1383.22z"/>
	<path class="st1" d="M-1361.17-852.78l-0.05,303.92h550.33v-303.92H-1361.17z M-1269.36-592.03h-22.01v-191.56h22.01V-592.03z"/>
	<g>
		<polygon class="st0" points="-582,-462.33 -582,103.23 -793.46,103.23 -793.46,81.17 -604.01,81.17 -604.01,-440.33 
			-793.46,-440.33 -793.46,-462.33 		"/>
	</g>
	<path class="st1" d="M-684.04-121.97c0,60.36-49.1,109.93-109.51,110.5v-220.99C-733.14-231.9-684.04-182.33-684.04-121.97z"/>
	<path class="st0" d="M-662.03-121.97c0,70.88-56.49,129.32-126.85,132.36c-1.5,0.09-2.99,0.14-4.49,0.14l-0.19-22.01
		c1.54,0,3.13-0.05,4.67-0.14c58.26-2.99,104.84-51.53,104.84-110.36c0-58.82-46.58-107.36-104.84-110.36
		c-1.54-0.09-3.13-0.14-4.67-0.14l0.19-22.05c1.5,0,2.99,0.05,4.49,0.14C-718.52-251.34-662.03-192.89-662.03-121.97z"/>
	<path class="st1" d="M-604.01-309.04V81.17h-184.88V10.39c70.36-3.04,126.85-61.49,126.85-132.36
		c0-70.92-56.49-129.37-126.85-132.41v-54.66H-604.01z"/>
	<rect x="-793.46" y="-331.09" class="st0" width="200.43" height="22.05"/>
	<g>
		<path class="st0" d="M-673.01-404.77c-16.21,0-29.39,13.18-29.39,29.39c0,16.21,13.18,29.39,29.39,29.39
			c16.21,0,29.39-13.18,29.39-29.39C-643.63-391.6-656.8-404.77-673.01-404.77z M-673.01-368c-4.06,0-7.38-3.32-7.38-7.38
			c0-4.06,3.32-7.34,7.38-7.34c4.06,0,7.34,3.27,7.34,7.34C-665.68-371.32-668.95-368-673.01-368z"/>
	</g>
	<path class="st0" d="M-738.56-404.77c-16.21,0-29.39,13.18-29.39,29.39c0,16.21,13.18,29.39,29.39,29.39
		c16.17,0,29.39-13.18,29.39-29.39C-709.17-391.6-722.4-404.77-738.56-404.77z M-738.56-368c-4.06,0-7.38-3.32-7.38-7.38
		c0-4.06,3.32-7.34,7.38-7.34s7.34,3.27,7.34,7.34C-731.23-371.32-734.5-368-738.56-368z"/>
	<path class="st1" d="M-788.88-440.33v109.23h184.88v-109.23H-788.88z M-738.56-346c-16.21,0-29.39-13.18-29.39-29.39
		c0-16.21,13.18-29.39,29.39-29.39c16.17,0,29.39,13.18,29.39,29.39C-709.17-359.17-722.4-346-738.56-346z M-673.01-346
		c-16.21,0-29.39-13.18-29.39-29.39c0-16.21,13.18-29.39,29.39-29.39c16.21,0,29.39,13.18,29.39,29.39
		C-643.63-359.17-656.8-346-673.01-346z"/>
	<path class="st1" d="M-731.23-375.38c0,4.06-3.27,7.38-7.34,7.38s-7.38-3.32-7.38-7.38c0-4.06,3.32-7.34,7.38-7.34
		S-731.23-379.45-731.23-375.38z"/>
	<path class="st1" d="M-665.68-375.38c0,4.06-3.27,7.38-7.34,7.38c-4.06,0-7.38-3.32-7.38-7.38c0-4.06,3.32-7.34,7.38-7.34
		C-668.95-382.72-665.68-379.45-665.68-375.38z"/>
	<g>
		<rect x="-1372.19" y="-548.86" class="st0" width="572.29" height="22.01"/>
	</g>
	<g>
		<rect x="-1291.37" y="-783.59" class="st0" width="22.01" height="191.56"/>
	</g>
	<g>
		<rect x="-1291.37" y="-479.71" class="st0" width="22.01" height="190.25"/>
	</g>
	<path class="st0" d="M-1326.31-70.58h-91.81L-1464,8.94l45.88,79.52h91.81l45.97-79.52L-1326.31-70.58z M-1361.26,52.53
		c-3.5,0.89-7.19,1.36-10.98,1.36c-3.78,0-7.48-0.47-11.03-1.36c-19.44-4.95-33.87-22.61-33.87-43.59
		c0-21.02,14.44-38.69,33.87-43.64c3.55-0.89,7.24-1.35,11.03-1.35c3.78,0,7.48,0.47,10.98,1.35c19.58,4.91,33.97,22.57,33.97,43.64
		C-1327.29,29.97-1341.68,47.67-1361.26,52.53z"/>
	<path class="st1" d="M-1327.29,8.94c0,21.02-14.39,38.73-33.97,43.59c-3.5,0.89-7.19,1.36-10.98,1.36c-3.78,0-7.48-0.47-11.03-1.36
		c-19.44-4.95-33.87-22.61-33.87-43.59c0-21.02,14.44-38.69,33.87-43.64c3.55-0.89,7.24-1.35,11.03-1.35
		c3.78,0,7.48,0.47,10.98,1.35C-1341.68-29.79-1327.29-12.13-1327.29,8.94z"/>
	<path class="st1" d="M-1361.21-526.85l-0.05,456.28h34.95l45.97,79.52l-45.97,79.52h-34.95v50.32h550.37v-665.63H-1361.21z
		 M-1269.36-289.46h-22.01v-190.25h22.01V-289.46z"/>
</g>
<g>
	<g>
		<polygon class="st0" points="-760.13,286.37 -760.13,562.35 -782.28,562.35 -782.28,308.52 -1495.8,308.52 -1495.8,756.16 
			-1000.92,756.16 -1000.92,778.32 -1518,778.32 -1518,286.37 		"/>
	</g>
	<path class="st0" d="M-1206.62,789.69v86.63h135.11v-86.63H-1206.62z M-1093.67,854.17h-90.79v-42.28h90.79V854.17z"/>
	<rect x="-1184.46" y="811.89" class="st1" width="90.79" height="42.28"/>
	<g>
		<path class="st0" d="M-1000.92,562.35v314.82h496.53V562.35H-1000.92z M-526.55,855.02h-452.22V584.55h452.22V855.02z"/>
		<rect x="-978.77" y="584.55" class="st1" width="452.22" height="270.47"/>
	</g>
	<g>
		<polygon class="st0" points="-474,885.92 -474,913.63 -1031.31,913.63 -1031.31,910.83 -1269.82,910.83 -1269.82,888.67 
			-1031.31,888.67 -1031.31,885.92 		"/>
	</g>
	<path class="st0" d="M-1234.42,472.66c0.34,0.55,0.76,1.02,1.23,1.49l15.7,15.71L-1234.42,472.66z M-1233.19,458.65
		c-0.3,0.3-0.59,0.64-0.85,0.98l19.74-19.86L-1233.19,458.65z"/>
	<path class="st1" d="M-1495.8,308.52v447.63h494.88V562.35h218.64V308.52H-1495.8z M-1023,556.66h-33.11
		c-1.83,6.32-4.37,12.44-7.6,18.21l23.47,23.43l-26.66,26.66c-3.74,3.74-10.57,4.92-16.72-1.27l-14.47-14.43
		c-5.77,3.23-11.84,5.73-18.17,7.56v33.15h-48.64v-33.15c-6.32-1.83-12.44-4.33-18.21-7.56l-7.22,7.22l-8.49,8.49l-7.73,7.77
		l-26.66-26.66c-2.5-2.5-3.57-5.94-2.93-9.42c0.51-2.59,1.91-5.05,4.2-7.34l14.43-14.43c-3.23-5.77-5.73-11.88-7.56-18.21h-33.15
		v-48.64h33.15c1.83-6.32,4.33-12.39,7.56-18.17l-15.7-15.71c-0.47-0.47-0.89-0.93-1.23-1.49l-0.13-0.17l-6.11-6.2l6.62-6.66
		c0.25-0.34,0.55-0.68,0.85-0.98l18.89-18.89c1.99-1.99,4.63-2.89,7.43-3.1c3.31,0,6.45,1.44,9.3,4.33l14.47,14.43
		c5.77-3.18,11.88-5.73,18.21-7.56v-33.11h48.64v33.11c6.32,1.83,12.39,4.37,18.17,7.56l23.47-23.43l26.61,26.66
		c1.99,2,3.1,4.63,3.1,7.43c0,3.27-1.44,6.41-4.33,9.3l-14.47,14.47c3.23,5.77,5.77,11.84,7.6,18.17h33.11V556.66z"/>
	<path class="st0" d="M-1023,556.66v-48.64h-33.11c-1.83-6.32-4.37-12.39-7.6-18.17l14.47-14.47c2.89-2.89,4.33-6.03,4.33-9.3
		c0-2.8-1.1-5.43-3.1-7.43l-26.61-26.66l-23.47,23.43c-5.77-3.18-11.84-5.73-18.17-7.56v-33.11h-48.64v33.11
		c-6.32,1.83-12.44,4.37-18.21,7.56l-14.47-14.43c-2.84-2.89-5.98-4.33-9.3-4.33c-2.8,0.21-5.43,1.1-7.43,3.1l-19.74,19.86
		l-6.62,6.66l6.11,6.2l0.13,0.17l16.94,17.19c-3.23,5.77-5.73,11.84-7.56,18.17h-33.15v48.64h33.15c1.83,6.32,4.33,12.44,7.56,18.21
		l-14.43,14.43c-2.29,2.29-3.69,4.75-4.2,7.34c-0.64,3.48,0.42,6.92,2.93,9.42l26.66,26.66l7.73-7.77l8.49-8.49l7.22-7.22
		c5.77,3.23,11.88,5.73,18.21,7.56v33.15h48.64v-33.15c6.32-1.83,12.39-4.33,18.17-7.56l14.47,14.43c6.15,6.2,12.99,5.01,16.72,1.27
		l26.66-26.66l-23.47-23.43c3.23-5.77,5.77-11.88,7.6-18.21H-1023z M-1063.74,598.3l-10.87,10.87l-14.77-14.73
		c-3.65-3.65-9.25-4.29-13.67-1.57c-9.04,5.69-19.19,9.17-29.84,10.31v30.14h-15.41v-30.14c-13.46-1.44-26.1-6.66-36.89-15.28
		c-0.04,0-0.08,0-0.08,0l-21.27,21.27l-10.91-10.87c0,0,20.8-20.76,21.31-21.31c0,0,0,0,0-0.04c-8.62-10.78-13.84-23.43-15.28-36.93
		h-30.14v-15.37h30.14c1.44-13.5,6.66-26.15,15.24-36.93c0.04,0,0.04-0.04,0-0.08l-21.22-21.27l10.87-10.87
		c0,0,20.71,20.76,21.31,21.31c0,0,0,0,0.04-0.04c10.74-8.57,23.43-13.84,36.89-15.28v-30.14h15.41v30.14
		c13.5,1.49,26.19,6.71,36.89,15.28c0.04,0.04,0.08,0.04,0.08,0l21.31-21.27l10.87,10.87l-14.77,14.77
		c-3.61,3.65-4.24,9.21-1.53,13.63c5.65,9.13,9.17,19.23,10.31,29.88h30.09v15.37h-30.09c-1.44,13.5-6.66,26.1-15.28,36.93
		c-0.04,0.04-0.04,0.08,0,0.08L-1063.74,598.3z"/>
	<path class="st1" d="M-1069.73,540.02h30.09v-15.37h-30.09c-1.15-10.65-4.67-20.76-10.31-29.88c-2.72-4.41-2.08-9.97,1.53-13.63
		l14.77-14.77l-10.87-10.87l-21.31,21.27c0,0.04-0.04,0.04-0.08,0c-10.7-8.57-23.39-13.79-36.89-15.28v-30.14h-15.41v30.14
		c-13.46,1.44-26.15,6.71-36.89,15.28c-0.04,0.04-0.04,0.04-0.04,0.04c-0.59-0.55-21.31-21.31-21.31-21.31l-10.87,10.87l21.22,21.27
		c0.04,0.04,0.04,0.08,0,0.08c-8.57,10.78-13.8,23.43-15.24,36.93h-30.14v15.37h30.14c1.44,13.5,6.66,26.15,15.28,36.93
		c0,0.04,0,0.04,0,0.04c-0.51,0.55-21.31,21.31-21.31,21.31l10.91,10.87l21.27-21.27c0,0,0.04,0,0.08,0
		c10.78,8.62,23.43,13.84,36.89,15.28v30.14h15.41v-30.14c10.65-1.15,20.8-4.63,29.84-10.31c4.41-2.72,10.02-2.08,13.67,1.57
		l14.77,14.73l10.87-10.87l-21.27-21.27c-0.04,0-0.04-0.04,0-0.08C-1076.39,566.13-1071.17,553.52-1069.73,540.02z M-1107.34,588.84
		c-60.32,30.94-120.67-29.42-89.73-89.73c5.14-9.93,13.29-18.12,23.26-23.22c60.27-30.99,120.67,29.42,89.69,89.69
		C-1089.21,575.55-1097.4,583.7-1107.34,588.84z"/>
	<g>
		<path class="st0" d="M-1084.12,565.58c-5.09,9.97-13.29,18.12-23.22,23.26c-60.32,30.94-120.67-29.42-89.73-89.73
			c5.14-9.93,13.29-18.12,23.26-23.22C-1113.53,444.9-1053.13,505.3-1084.12,565.58z"/>
	</g>
	<circle class="st1" cx="-1140.58" cy="532.34" r="47.73"/>
</g>
<g>
	<path class="st1" d="M-590.4,1616.09h107.15c-5.76,205.68-172.03,371.9-377.66,377.66V1886.6h-22.18v107.15
		c-205.68-5.76-371.9-171.98-377.66-377.66h107.15v-22.18h-107.15c5.76-205.68,171.98-371.9,377.66-377.66v107.15h22.18v-107.15
		c205.63,5.76,371.9,171.98,377.66,377.66H-590.4V1616.09z"/>
	<g>
		<g>
			<path class="st0" d="M-746.26,1574.5c-1.26-5.47-2.86-10.85-4.74-16.17c-0.44-1.5-0.97-2.95-1.55-4.45
				c-1.98-5.18-5.81-9.3-10.89-11.52c-5.04-2.23-10.6-2.32-15.74-0.29c-0.19,0.05-0.34,0.15-0.53,0.19
				c-17.58,18.69-46.97,31.42-80.62,32.97c13.17-0.39,26.15-1.69,38.98-3.97c5.52-1.02,10.94-2.18,16.37-3.49
				c1.79-0.48,3.58-0.92,5.37-1.4c1.26-0.34,2.52-0.68,3.73-1.07c1.02-0.24,1.99-0.53,2.95-0.87c1.89-0.53,3.73-1.11,5.57-1.74
				c2.42-0.77,4.79-1.6,7.17-2.47c2.37-0.82,4.74-1.74,7.12-2.66c1.31-0.53,2.37-0.19,2.91,0.05c0.53,0.24,1.55,0.82,2.03,2.18
				c6.34,16.75,9.59,34.43,9.59,52.53c0,66.33-42.9,123.37-105.46,142.11c-2.76,0.87-5.52,1.6-8.33,2.28
				c-2.81-0.68-5.57-1.4-8.33-2.28c-62.56-18.74-105.41-75.78-105.41-142.11c0-19.46,3.68-38.4,10.99-56.26
				c0.58-1.36,1.6-1.94,2.18-2.18c0.34-0.15,0.82-0.24,1.36-0.24c0.44,0,0.97,0.05,1.5,0.29c30.79,13.51,63.57,20.72,97.42,21.35
				c-34.28-1.21-64.3-14.09-82.12-33.02c-2.9-1.11-5.76-2.32-8.62-3.58c-5.08-2.23-10.7-2.32-15.78-0.24
				c-5.18,2.08-9.2,6.1-11.33,11.33c-1.16,2.81-2.23,5.62-3.2,8.47c-1.84,5.33-3.39,10.7-4.65,16.17c-3,12.35-4.45,25.03-4.45,37.91
				c0,1.94,0.05,3.82,0.1,5.76c0.19,5.62,0.68,11.18,1.4,16.66c2.03,15.4,6.2,30.16,12.25,43.96c2.28,5.33,4.84,10.51,7.7,15.49
				c22.27,39.27,60.38,68.61,107.15,79.21l1.84,0.39l1.84-0.39c46.87-10.6,84.97-39.99,107.2-79.31c2.86-4.99,5.42-10.17,7.75-15.49
				c5.96-13.75,10.12-28.52,12.15-43.87c0.73-5.47,1.21-11.04,1.4-16.66c0.05-1.94,0.1-3.83,0.1-5.76
				C-741.9,1599.48-743.35,1586.84-746.26,1574.5z"/>
			<path class="st0" d="M-758.56,1612.31c0,66.33-42.9,123.37-105.46,142.11v-65.22h-16.66v65.22
				c-62.56-18.74-105.41-75.78-105.41-142.11c0-19.46,3.68-38.4,10.99-56.26c0.58-1.36,1.6-1.94,2.18-2.18
				c0.34-0.15,0.82-0.24,1.36-0.24c0.44,0,0.97,0.05,1.5,0.29c30.79,13.51,63.57,20.72,97.42,21.35c1.79,0.05,3.58,0.1,5.37,0.1
				h0.05c2.32,0,4.6-0.05,6.88-0.15c13.17-0.39,26.15-1.69,38.98-3.97c5.52-1.02,10.94-2.18,16.37-3.49
				c1.79-0.48,3.58-0.92,5.37-1.4c1.26-0.34,2.52-0.68,3.73-1.07c1.02-0.24,1.99-0.53,2.95-0.87c1.89-0.53,3.73-1.11,5.57-1.74
				c2.42-0.77,4.79-1.6,7.17-2.47c2.37-0.82,4.74-1.74,7.12-2.66c1.31-0.53,2.37-0.19,2.91,0.05c0.53,0.24,1.55,0.82,2.03,2.18
				C-761.8,1576.53-758.56,1594.2-758.56,1612.31z"/>
		</g>
		<g>
			<path class="st0" d="M-778.99,1501.67c0,31.47-39.56,57.04-88.22,57.04h-0.19c-48.56-0.05-88.07-25.61-88.07-57.04
				s39.61-57.04,88.22-57.04C-818.59,1444.64-778.99,1470.25-778.99,1501.67z"/>
		</g>
		<g>
			<g>
				<path class="st0" d="M-758.17,1575.38v-16.66c15.62,0,28.07-5.17,38.07-15.79c29.39-31.24,25.7-97.66,25.66-98.33l16.63-1.03
					c0.19,3.02,4.2,74.22-30.12,110.75C-721.08,1568.29-737.98,1575.38-758.17,1575.38z"/>
			</g>
			<g>
				<rect x="-754.99" y="1618.09" class="st0" width="82.88" height="16.66"/>
			</g>
			<g>
				<path class="st0" d="M-677.6,1773.71l-16.66-0.05c0.18-64.21-55.24-79.71-76.61-80.27l0.43-16.66
					C-744.54,1677.41-677.38,1696.14-677.6,1773.71z"/>
			</g>
		</g>
		<g>
			<g>
				<path class="st0" d="M-985.83,1575.38c-20.2,0-37.1-7.09-50.23-21.07c-34.32-36.52-30.31-107.73-30.12-110.75l16.63,1.03
					c-0.04,0.67-3.73,67.09,25.66,98.33c10,10.62,22.45,15.79,38.07,15.79V1575.38z"/>
			</g>
			<g>
				<rect x="-1071.9" y="1618.09" class="st0" width="82.88" height="16.66"/>
			</g>
			<g>
				<path class="st0" d="M-1066.4,1773.71c-0.22-77.57,66.95-96.3,92.85-96.97l0.43,16.66c-21.37,0.55-76.8,16.05-76.62,80.27
					L-1066.4,1773.71z"/>
			</g>
		</g>
		<g>
			<path class="st0" d="M-864.01,1754.42v10.85h-16.66v-10.85c2.76,0.87,5.52,1.6,8.33,2.28
				C-869.53,1756.02-866.77,1755.29-864.01,1754.42z"/>
		</g>
	</g>
	<path class="st0" d="M-460.98,1593.91c-5.81-217.88-182.05-394.13-399.94-399.94c-3.68-0.1-7.36-0.15-11.09-0.15
		s-7.41,0.05-11.09,0.15c-217.93,5.81-394.13,182.05-399.94,399.94c-0.1,3.68-0.15,7.36-0.15,11.09c0,3.73,0.05,7.41,0.15,11.09
		c5.81,217.88,182.01,394.13,399.94,399.94c3.68,0.1,7.36,0.15,11.09,0.15s7.41-0.05,11.09-0.15
		c217.88-5.81,394.13-182.05,399.94-399.94c0.1-3.68,0.15-7.36,0.15-11.09C-460.83,1601.27-460.88,1597.59-460.98,1593.91z
		 M-860.91,1993.75c-3.68,0.15-7.36,0.19-11.09,0.19s-7.41-0.05-11.09-0.19c-205.68-5.76-371.9-171.98-377.66-377.66
		c-0.15-3.68-0.19-7.36-0.19-11.09c0-3.73,0.05-7.41,0.19-11.09c5.76-205.68,171.98-371.9,377.66-377.66
		c3.68-0.15,7.36-0.19,11.09-0.19s7.41,0.05,11.09,0.19c205.63,5.76,371.9,171.98,377.66,377.66c0.15,3.68,0.19,7.36,0.19,11.09
		c0,3.73-0.05,7.41-0.19,11.09C-489.01,1821.77-655.28,1987.99-860.91,1993.75z"/>
	<g>
		<rect x="-883.09" y="1083" class="st0" width="22.18" height="240.4"/>
	</g>
	<g>
		<rect x="-1394" y="1593.91" class="st0" width="240.4" height="22.18"/>
	</g>
	<g>
		<rect x="-883.09" y="1886.6" class="st0" width="22.18" height="240.4"/>
	</g>
	<g>
		<rect x="-590.4" y="1593.91" class="st0" width="240.4" height="22.18"/>
	</g>
</g>
<g>
	<path class="st0" d="M-763.32,2450.85v94.72l121.01,98.79v-193.51H-763.32z M-744.8,2536.77v-67.4h83.98v135.96L-744.8,2536.77z"/>
	<polygon class="st1" points="-660.82,2469.37 -660.82,2605.33 -744.8,2536.77 -744.8,2469.37 	"/>
	<polygon class="st1" points="-703.88,2793.19 -703.88,2895.55 -787.95,2895.55 -787.95,2947.86 -880.07,2947.86 -880.07,2793.19 	
		"/>
	<polygon class="st1" points="-703.88,3057.57 -703.88,3121.04 -880.07,3121.04 -880.07,2966.37 -787.95,2966.37 -787.95,3057.57 	
		"/>
	<g>
		<polygon class="st0" points="-518.66,2721.39 -530.37,2735.74 -601.34,2677.78 -619.85,2662.69 -642.31,2644.36 -763.32,2545.57 
			-948.81,2394.1 -1283.01,2664.31 -1301.52,2679.31 -1371.33,2735.74 -1383,2721.34 -948.77,2370.26 -763.32,2521.63 
			-744.8,2536.77 -660.82,2605.33 -642.31,2620.42 		"/>
	</g>
	<g>
		<path class="st0" d="M-1218.38,2774.67v234.75h234.75v-234.75H-1218.38z M-1002.14,2990.91h-197.72v-197.72h197.72V2990.91z"/>
	</g>
	<g>
		<polygon class="st0" points="-685.36,2774.67 -685.36,2899.76 -703.88,2899.76 -703.88,2793.19 -880.07,2793.19 -880.07,3121.04 
			-703.88,3121.04 -703.88,3049.56 -685.36,3049.56 -685.36,3139.56 -898.59,3139.56 -898.59,2774.67 		"/>
	</g>
	<g>
		<rect x="-619.85" y="2658.29" class="st0" width="18.52" height="241.47"/>
	</g>
	<g>
		<polygon class="st0" points="-601.34,3049.56 -601.34,3139.56 -1301.52,3139.56 -1301.52,2659.91 -1283.01,2659.91 
			-1283.01,3121.04 -619.85,3121.04 -619.85,3049.56 		"/>
	</g>
	<path class="st0" d="M-787.95,2967.35v90.23h383.4v-90.23H-787.95z M-423.06,3039.05h-346.37v-53.19h346.37V3039.05z"/>
	<rect x="-685.36" y="3057.57" class="st1" width="65.51" height="63.47"/>
	<rect x="-769.43" y="2985.86" class="st1" width="346.37" height="53.19"/>
	<path class="st0" d="M-787.95,2895.55v90.32h383.4v-90.32H-787.95z M-769.43,2967.35v-53.28h346.37v53.28H-769.43z"/>
	<rect x="-769.43" y="2914.06" class="st1" width="346.37" height="53.28"/>
	<path class="st1" d="M-642.31,2644.36l-121.01-98.79l-185.5-151.47l-334.19,270.21v456.73h384.42v-346.37h213.23v120.87h65.51
		v-232.86L-642.31,2644.36z M-983.63,3009.43h-234.75v-234.75h234.75V3009.43z"/>
	<rect x="-1091.72" y="2901.29" class="st1" width="89.58" height="89.62"/>
	<rect x="-1199.86" y="2901.29" class="st1" width="89.62" height="89.62"/>
	<rect x="-1199.86" y="2793.19" class="st1" width="89.62" height="89.58"/>
	<rect x="-1091.72" y="2793.19" class="st1" width="89.58" height="89.58"/>
	<g>
		<polygon class="st0" points="-558.31,3224.58 -576.83,3224.58 -576.83,3137.43 -357.52,3137.43 -357.52,3009.4 -413.85,3009.4 
			-413.85,2990.88 -339,2990.88 -339,3155.95 -558.31,3155.95 		"/>
	</g>
	<path class="st0" d="M-622.96,3215.34v180.41h110.78v-180.41H-622.96z M-530.69,3377.23h-73.75v-143.37h73.75V3377.23z"/>
	<rect x="-604.44" y="3233.86" class="st1" width="73.75" height="143.37"/>
	<rect x="-889.37" y="2947.86" class="st0" width="105.55" height="18.52"/>
	<g>
		<rect x="-1110.24" y="2783.93" class="st0" width="18.52" height="216.19"/>
	</g>
	<g>
		<rect x="-1209.08" y="2882.77" class="st0" width="216.19" height="18.52"/>
	</g>
</g>
<g>
	<path class="st1" d="M571.73,324.19v235.34h489.45V324.19H571.73z M1028.92,527.26H604v-170.8h424.92V527.26z"/>
	<rect x="645.73" y="394.15" class="st1" width="340.14" height="32.2"/>
	<rect x="552.95" y="324.19" class="st1" width="524.36" height="32.27"/>
	<path class="st1" d="M1039.83,339.35c0,0.9-0.07,1.81-0.14,2.64l-16.06-1.67h-0.56l-15.51-0.76c0-5.15-0.21-10.29-0.7-15.37
		c-7.79-97.92-89.78-175.04-189.58-175.04c-99.8,0-181.93,77.19-189.58,175.04c-0.49,5.01-0.7,10.08-0.7,15.16l-32.13,2.23
		c-0.07-0.7-0.14-1.46-0.14-2.23c0-5.08,0.14-10.15,0.49-15.16c7.44-109.6,94.58-197.64,203.76-206.55
		c6.05-0.49,12.17-0.76,18.29-0.76c4.73,0,9.39,0.14,13.98,0.42c111.2,6.95,200.57,95.9,208.08,206.89
		C1039.69,329.19,1039.83,334.27,1039.83,339.35z"/>
	<rect x="799" y="78" class="st1" width="32.27" height="46.94"/>
	<rect x="198.62" y="1047.59" class="st0" width="32.27" height="74.41"/>
	<rect x="958.61" y="1047.59" class="st0" width="32.2" height="74.41"/>
	<polygon class="st0" points="1100.2,704.18 1073.28,713.77 179.99,1031.45 113.29,1055.17 107.87,1039.94 131.72,1031.45 
		1065.63,699.31 1094.77,688.95 1098.46,699.31 	"/>
	<path class="st0" d="M457.82,527.26c-13.77,19.47-36.51,32.27-62.17,32.27h685.71v107.52h-962.7V559.53h94.02
		c-25.73,0-48.47-12.8-62.24-32.27H86.38v172.05h1027.24V527.26H457.82z"/>
	<path class="st0" d="M94.45,667.04v396.68h1011.11V667.04H94.45z M1073.28,1031.45H126.72V699.31h946.57V1031.45z"/>
	<path class="st0" d="M484.38,305.9v-32.27H125.67v32.27h12.38c2.57,12.03,8.07,23.02,15.58,32.2h-27.96v32.27h12.38
		c2.57,12.03,8.07,23.02,15.58,32.2c14.05,17.04,35.26,27.96,59.04,27.96h182.97c23.71,0,45-10.92,58.97-27.96
		c7.51-9.18,13-20.17,15.58-32.2h14.19V338.1h-29.77c7.51-9.18,13-20.17,15.58-32.2H484.38z M395.64,398.25H212.67
		c-18.64,0-34.56-11.54-41.03-27.89h265.03C430.21,386.71,414.28,398.25,395.64,398.25z M395.64,333.78H212.67
		c-18.64,0-34.56-11.54-41.03-27.89h265.03C430.21,322.24,414.28,333.78,395.64,333.78z"/>
	<path class="st1" d="M436.68,305.9c-6.47,16.34-22.39,27.89-41.03,27.89H212.67c-18.64,0-34.56-11.54-41.03-27.89H436.68z"/>
	<path class="st1" d="M436.68,370.36c-6.47,16.34-22.39,27.89-41.03,27.89H212.67c-18.64,0-34.56-11.54-41.03-27.89H436.68z"/>
	<path class="st0" d="M454.62,402.56c-13.98,17.04-35.26,27.96-58.97,27.96H212.67c-23.78,0-45-10.92-59.04-27.96h-27.96v32.27
		h12.38c2.57,12.03,8.07,23.02,15.58,32.2c14.05,17.04,35.26,27.96,59.04,27.96h182.97c23.71,0,45-10.92,58.97-27.96
		c7.51-9.18,13-20.17,15.58-32.2h14.19v-32.27H454.62z M395.64,462.79H212.67c-18.64,0-34.56-11.61-41.03-27.96h265.03
		C430.21,451.18,414.28,462.79,395.64,462.79z"/>
	<path class="st1" d="M436.68,434.83c-6.47,16.34-22.39,27.96-41.03,27.96H212.67c-18.64,0-34.56-11.61-41.03-27.96H436.68z"/>
	<path class="st0" d="M454.62,467.03c-13.98,17.04-35.26,27.96-58.97,27.96H212.67c-23.78,0-45-10.92-59.04-27.96h-27.96v32.27
		h12.38c2.16,10.22,6.47,19.68,12.38,27.96c13.77,19.47,36.51,32.27,62.24,32.27h182.97c25.66,0,48.4-12.8,62.17-32.27
		c5.91-8.28,10.22-17.73,12.38-27.96c1.11-5.22,1.74-10.57,1.74-16.13v-16.13H454.62z M395.64,527.26H212.67
		c-18.64,0-34.56-11.61-41.03-27.96h265.03C430.21,515.64,414.28,527.26,395.64,527.26z"/>
	<path class="st1" d="M436.68,499.3c-6.47,16.34-22.39,27.96-41.03,27.96H212.67c-18.64,0-34.56-11.61-41.03-27.96H436.68z"/>
	<path class="st0" d="M484.38,467.03v32.27H470.2c1.11-5.22,1.74-10.57,1.74-16.13v-16.13H484.38z"/>
	<rect x="230.89" y="1063.72" class="st1" width="727.71" height="9.88"/>
	<polygon class="st1" points="1073.28,713.77 1073.28,1031.45 179.99,1031.45 	"/>
	<path class="st0" d="M645.73,394.15v32.2h340.14v-32.2H645.73z M645.73,394.15v32.2h340.14v-32.2H645.73z M1061.18,527.26v-170.8
		h16.13v-32.27h-37.97c-7.51-110.99-96.88-199.94-208.08-206.89V78H799v39.64c-109.18,8.9-196.32,96.94-203.76,206.55h-42.28v32.27
		h18.78v170.8H457.82c-13.77,19.47-36.51,32.27-62.17,32.27h685.71v107.52h-962.7V559.53h94.02c-25.73,0-48.47-12.8-62.24-32.27
		H86.38v172.05h8.07v364.41h104.18V1122h32.27v-58.28h727.71V1122h32.2v-58.28h114.75V699.31h8.07V527.26H1061.18z M817.29,149.14
		c99.8,0,181.79,77.12,189.58,175.04H627.71C635.36,226.34,717.5,149.14,817.29,149.14z M604,527.26v-170.8h424.92v170.8H604z
		 M1065.63,699.31l-933.84,332.14h-5.08V699.31H1065.63z M1073.28,1031.45h-893.3l893.3-317.68V1031.45z M645.73,426.35h340.14
		v-32.2H645.73V426.35z M645.73,394.15v32.2h340.14v-32.2H645.73z M645.73,394.15v32.2h340.14v-32.2H645.73z"/>
	<path class="st1" d="M1006.87,324.19H627.71c7.65-97.85,89.78-175.04,189.58-175.04C917.09,149.14,999.08,226.27,1006.87,324.19z"
		/>
	<path class="st1" d="M604,356.46v170.8h424.92v-170.8H604z M985.87,426.35H645.73v-32.2h340.14V426.35z"/>
	<rect x="118.65" y="559.53" class="st1" width="962.7" height="107.52"/>
	<polygon class="st1" points="1065.63,699.31 131.72,1031.45 126.72,1031.45 126.72,699.31 	"/>
</g>
</svg>
