<?xml version="1.0" encoding="utf-8"?>
<!-- Generator: Adobe Illustrator 25.0.1, SVG Export Plug-In . SVG Version: 6.00 Build 0)  -->
<svg version="1.1" id="Layer_1" xmlns="http://www.w3.org/2000/svg" xmlns:xlink="http://www.w3.org/1999/xlink" x="0px" y="0px"
	 viewBox="0 0 100 100" style="enable-background:new 0 0 100 100;" xml:space="preserve">
<style type="text/css">
	.st0{fill:#333333;}
	.st1{fill:#FF6600;}
	.st2{fill:#FFFFFF;}
</style>
<g>
	<path class="st0" d="M94.18,77.45c0,9.45-7.66,17.12-17.12,17.12c-9.45,0-17.12-7.66-17.12-17.12c0-3.66,1.15-7.06,3.11-9.85
		l1.69,1.69c-1.55,2.34-2.45,5.14-2.45,8.15c0,8.16,6.61,14.77,14.77,14.77s14.77-6.61,14.77-14.77c0-8.16-6.61-14.77-14.77-14.77
		c-2.99,0-5.77,0.89-8.09,2.42l-1.69-1.69c2.77-1.93,6.15-3.07,9.78-3.07C86.52,60.34,94.18,68,94.18,77.45z"/>
	<path class="st0" d="M47.14,27.82l-2.98,2.98L20.75,8.05c-1.76-1.71-4.1-2.66-6.59-2.66c-2.53,0-4.9,0.97-6.67,2.75
		c-1.81,1.81-2.79,4.2-2.77,6.75c0.01,2.55,1.03,4.93,2.86,6.7L30.8,44.16l-2.6,2.61l-0.77,0.76l7.87,7.66l0.39-0.38l0.16-0.15
		l0.19-0.19l19.08-18.89L47.14,27.82z M9.06,20.08c-1.42-1.38-2.21-3.23-2.21-5.2c-0.01-1.97,0.75-3.83,2.14-5.23
		c1.37-1.38,3.21-2.14,5.18-2.14c1.93,0,3.74,0.73,5.1,2.07l23.4,22.72L32.3,42.66L9.06,20.08z M35.6,52.53l-5.15-5.01l1.57-1.56
		L47.16,30.8l5.15,5.01L35.6,52.53z"/>
	<polygon class="st1" points="52.31,35.82 35.6,52.53 30.44,47.51 32.02,45.95 47.16,30.8 	"/>
	<path class="st2" d="M19.27,9.58c-1.36-1.33-3.18-2.07-5.1-2.07c-1.97,0-3.81,0.76-5.18,2.14c-1.4,1.4-2.16,3.25-2.14,5.23
		c0.01,1.97,0.79,3.82,2.21,5.2L32.3,42.66L42.67,32.3L19.27,9.58z M31.86,33.33L16.85,18.31l1.5-1.49l15.01,15.01L31.86,33.33z"/>
	<path class="st0" d="M98.26,12.43l-0.54-1.56L84.85,23.1l-6.41-1.98l-1.8-6.54L89.69,2.17l-1.46-0.64c-2.29-1-4.74-1.51-7.28-1.51
		c-10.08,0-18.28,8.2-18.28,18.28c0,2.69,0.57,5.28,1.7,7.7l0.13,0.28l-9.39,9.3L36.04,54.47l-0.19,0.19l-0.16,0.15l-0.39,0.38
		l-9.61,9.47l-0.26-0.1c-2.03-0.76-4.17-1.14-6.37-1.14c-10.08,0-18.28,8.2-18.28,18.28c0,2.01,0.32,3.99,0.97,5.88l0.54,1.56
		L15.15,76.9l6.41,1.98l1.8,6.54L10.31,97.83l1.46,0.64c2.3,1,4.75,1.51,7.28,1.51c10.08,0,18.28-8.2,18.28-18.28
		c0-2.71-0.58-5.31-1.72-7.73l-0.13-0.28l17.37-17.17l0.98-0.97l1.42-1.4l0.98-0.97l2.45-2.42l15.62-15.44l0.26,0.1
		c2.05,0.77,4.21,1.16,6.41,1.16c10.08,0,18.28-8.2,18.28-18.28C99.22,16.28,98.9,14.3,98.26,12.43z M19.05,97.86
		c-1.42,0-2.82-0.18-4.15-0.53l-0.77-0.2l11.61-11.03l-2.44-8.89l-8.71-2.69L3.27,85.27l-0.14-0.82c-0.15-0.9-0.23-1.82-0.23-2.75
		c0-8.91,7.25-16.16,16.16-16.16s16.16,7.25,16.16,16.16S27.96,97.86,19.05,97.86z M51.56,54.79L34.39,71.76l-0.3-0.43
		c-1.52-2.21-3.54-4.08-5.85-5.42l-0.5-0.29l9.44-9.29l0.15-0.15l0.2-0.2L65.58,28.2l0.3,0.44c1.51,2.21,3.53,4.09,5.84,5.45
		l0.5,0.29L51.56,54.79z M80.95,34.46c-8.91,0-16.16-7.25-16.16-16.16S72.04,2.14,80.95,2.14c1.42,0,2.82,0.18,4.15,0.53l0.77,0.2
		L74.26,13.91l2.44,8.89l8.71,2.69l11.32-10.77l0.14,0.82c0.15,0.9,0.23,1.82,0.23,2.75C97.11,27.21,89.86,34.46,80.95,34.46z"/>
	<path class="st2" d="M35.21,81.7c0,8.91-7.25,16.16-16.16,16.16c-1.42,0-2.82-0.18-4.15-0.53l-0.77-0.2l11.61-11.03l-2.44-8.89
		l-8.71-2.69L3.27,85.27l-0.14-0.82c-0.15-0.9-0.23-1.82-0.23-2.75c0-8.91,7.25-16.16,16.16-16.16S35.21,72.79,35.21,81.7z"/>
	<path class="st2" d="M97.11,18.3c0,8.91-7.25,16.16-16.16,16.16S64.79,27.21,64.79,18.3S72.04,2.14,80.95,2.14
		c1.42,0,2.82,0.18,4.15,0.53l0.77,0.2L74.26,13.91l2.44,8.89l8.71,2.69l11.32-10.77l0.14,0.82C97.03,16.45,97.11,17.37,97.11,18.3z
		"/>
	<path class="st2" d="M72.22,34.37L51.56,54.79L34.39,71.76l-0.3-0.43c-1.52-2.21-3.54-4.08-5.85-5.42l-0.5-0.29l9.44-9.29
		l0.15-0.15l0.2-0.2L65.58,28.2l0.3,0.44c1.51,2.21,3.53,4.09,5.84,5.45L72.22,34.37z"/>
	<path class="st0" d="M80.84,77.72c0,0.11-0.03,0.27-0.18,0.42l-2.78,2.78c-0.11,0.11-0.26,0.17-0.45,0.17h-0.01
		c-0.11-0.01-0.27-0.06-0.4-0.23l-6.16-8.27L53.82,55.55l1.42-1.4l13.79,13.79l4.1,4.1l7.53,5.27
		C80.78,77.43,80.82,77.57,80.84,77.72z"/>
	<path class="st0" d="M81.63,79.11l-2.78,2.79c-0.37,0.37-0.85,0.57-1.38,0.57c-0.61,0-1.19-0.29-1.56-0.78l-6.1-8.17l-8.83-8.84
		l-1.55-1.55l-6.59-6.6l0.98-0.96L70.84,72.6l6.16,8.27c0.14,0.17,0.29,0.21,0.41,0.23h0.01c0.19,0,0.34-0.07,0.46-0.17l2.78-2.78
		c0.14-0.14,0.18-0.31,0.18-0.42c-0.02-0.15-0.06-0.29-0.19-0.42l-7.53-5.27l-4.1-4.1L55.23,54.14l0.98-0.96l5.26,5.26l11.08,11.08
		l8.87,6.64c0.46,0.33,0.74,0.85,0.78,1.42C82.24,78.14,82.04,78.7,81.63,79.11z"/>
	
		<rect x="24.05" y="14.46" transform="matrix(0.7071 -0.7071 0.7071 0.7071 -10.3757 25.0968)" class="st0" width="2.12" height="21.23"/>
	<path class="st2" d="M83.3,81.88c-1.65,2.72-4.64,4.54-8.04,4.54c-5.19,0-9.4-4.22-9.4-9.4c0-0.91,0.13-1.8,0.38-2.66l1.19,1.19
		l0.58,0.78c-0.02,0.21-0.03,0.44-0.03,0.68c0,3.54,2.5,6.53,5.97,7.16c0.94,0.91,2.21,1.42,3.52,1.42c1.36,0,2.64-0.53,3.6-1.49
		L83.3,81.88z"/>
	<path class="st2" d="M84.38,74.75c-0.3-0.41-0.66-0.78-1.08-1.1l-8.07-6.03h0.03C79.66,67.62,83.36,70.66,84.38,74.75z"/>
	<path class="st0" d="M71.3,72.2l-6.59-6.6c0.18-0.19,0.37-0.38,0.57-0.56l3.32,3.32l4.13,4.14l7.49,5.23l-2.75,2.75L71.3,72.2z"/>
	<g>
		<g>
			<path class="st0" d="M84.3,76.27c0.55-0.31,1.11-0.47,1.66-0.58c0.55-0.12,1.11-0.16,1.66-0.17c0.55,0,1.11,0.05,1.66,0.16
				c0.55,0.11,1.11,0.27,1.66,0.59c-0.55,0.31-1.11,0.48-1.66,0.59c-0.55,0.12-1.11,0.16-1.66,0.16c-0.55,0-1.11-0.05-1.66-0.17
				C85.41,76.74,84.86,76.58,84.3,76.27z"/>
		</g>
		<g>
			<path class="st0" d="M87.63,72.94c0.31,0.55,0.47,1.11,0.58,1.66c0.12,0.55,0.16,1.11,0.17,1.66c0,0.55-0.05,1.11-0.16,1.66
				c-0.11,0.55-0.27,1.11-0.59,1.66c-0.31-0.55-0.48-1.11-0.59-1.66c-0.12-0.55-0.16-1.11-0.16-1.66c0-0.55,0.05-1.11,0.17-1.66
				C87.16,74.05,87.32,73.49,87.63,72.94z"/>
		</g>
	</g>
</g>
</svg>
